<svg xmlns="http://www.w3.org/2000/svg" xmlns:xlink="http://www.w3.org/1999/xlink" version="1.1" id="Icon" x="0px" y="0px" width="100px" height="100px" viewBox="0 0 100 100" enable-background="new 0 0 100 100" xml:space="preserve">
<path fill-rule="evenodd" clip-rule="evenodd" d="M12.1,19.5h76.816c3.462,0,6.269,2.807,6.269,6.269v49.463  c0,3.462-2.807,6.269-6.269,6.269H12.1c-3.462,0-6.268-2.807-6.268-6.269V25.769C5.832,22.307,8.638,19.5,12.1,19.5z M14.034,23.147  h72.941c2.518,0,4.559,2.041,4.559,4.559v45.588c0,2.519-2.041,4.559-4.559,4.559H14.034c-2.518,0-4.559-2.04-4.559-4.559V27.706  C9.475,25.188,11.516,23.147,14.034,23.147z M68.74,64.175c-0.002,0-0.003,0-0.005,0l0,0h-36.47  c-7.553,0-13.676-6.122-13.676-13.675c0-7.552,6.123-13.675,13.676-13.675c7.553,0,13.676,6.123,13.676,13.675  c0,3.963-1.688,7.53-4.382,10.028h17.886c-2.694-2.498-4.382-6.065-4.382-10.028c0-7.552,6.123-13.675,13.676-13.675  c7.554,0,13.676,6.123,13.676,13.675C82.416,58.053,76.294,64.175,68.74,64.175z M42.295,50.5c0-5.538-4.49-10.028-10.029-10.028  S22.236,44.962,22.236,50.5s4.49,10.028,10.029,10.028S42.295,56.038,42.295,50.5z M68.74,40.472  c-5.539,0-10.029,4.49-10.029,10.028s4.49,10.028,10.029,10.028S78.77,56.038,78.77,50.5S74.279,40.472,68.74,40.472z"/>
</svg>